<svg id="Layer_1" data-name="Layer 1" xmlns="http://www.w3.org/2000/svg" viewBox="0 0 19.44 17"><defs><style>.cls-1{fill:aqua;}</style></defs><title>list-robot-blue</title><circle class="cls-1" cx="5.32" cy="10" r="1.08"/><circle class="cls-1" cx="14.01" cy="10" r="1.08"/><path class="cls-1" d="M11,11.36a2,2,0,0,1-2.76.48.32.32,0,1,0-.37.53,2.61,2.61,0,0,0,1.5.48,2.65,2.65,0,0,0,.46,0,2.61,2.61,0,0,0,1.7-1.08.32.32,0,1,0-.53-.37Z"/><path class="cls-1" d="M18.6,8.92H18a.8.8,0,0,0-.15,0,4.11,4.11,0,0,0-4.1-4H10.2V3.06A1.31,1.31,0,1,0,9.13,3V5H5.66a4.11,4.11,0,0,0-4.1,4,.8.8,0,0,0-.15,0H.84A.84.84,0,0,0,0,9.77v2.32a.84.84,0,0,0,.84.84h.57a.8.8,0,0,0,.15,0,4.11,4.11,0,0,0,4.1,4h8.12a4.11,4.11,0,0,0,4.1-4,.8.8,0,0,0,.15,0h.57a.84.84,0,0,0,.84-.84V9.77A.84.84,0,0,0,18.6,8.92ZM17,12.77a3.21,3.21,0,0,1-3.2,3.2H5.66a3.21,3.21,0,0,1-3.2-3.2V9.09a3.21,3.21,0,0,1,3.2-3.2h8.12A3.21,3.21,0,0,1,17,9.09Z"/></svg>