<svg id="Layer_1" data-name="Layer 1" xmlns="http://www.w3.org/2000/svg" viewBox="0 0 19.44 17"><defs><style>.cls-1{fill:aqua;}</style></defs><title>list_chat</title><circle class="cls-1" cx="6.22" cy="7.07" r="1.08"/><circle class="cls-1" cx="9.57" cy="7.07" r="1.08"/><circle class="cls-1" cx="12.92" cy="7.07" r="1.08"/><path class="cls-1" d="M14.22,1.26h-9A4.12,4.12,0,0,0,1.11,5.37V9.06a4.12,4.12,0,0,0,4.11,4.11H9.94l4,3.32a.45.45,0,0,0,.75-.35v-3a4.12,4.12,0,0,0,3.66-4.09V5.37A4.12,4.12,0,0,0,14.22,1.26Zm3.2,7.8a3.21,3.21,0,0,1-3.2,3.2.45.45,0,0,0-.45.45v2.45l-3.37-2.8a.45.45,0,0,0-.29-.1H5.23A3.21,3.21,0,0,1,2,9.06V5.37a3.21,3.21,0,0,1,3.2-3.2h9a3.21,3.21,0,0,1,3.2,3.2Z"/></svg>